HIERARCHY
ROOT pelvis
{
  OFFSET 0 100 0
  CHANNELS 6 Xposition Yposition Zposition Zrotation Xrotation Yrotation
  JOINT pelvis_right_femur
  {
    OFFSET -10.78128 -3.44521 -0.5502486
    CHANNELS 3 Zrotation Xrotation Yrotation
    JOINT right_femur_tibia
    {
      OFFSET -0.8047443 -44.0398 -0.1307829
      CHANNELS 3 Zrotation Xrotation Yrotation
      JOINT right_tibia_foot
      {
        OFFSET 3.006224 -47.83518 -5
        CHANNELS 3 Zrotation Xrotation Yrotation
        End Site
        {
          OFFSET 0 -5 15
        }
      }
    }
  }
  JOINT pelvis_left_femur
  {
    OFFSET 10.78128 -3.44521 -0.5502486
    CHANNELS 3 Zrotation Xrotation Yrotation
    JOINT left_femur_tibia
    {
      OFFSET 0.8047443 -44.0398 -0.1307829
      CHANNELS 3 Zrotation Xrotation Yrotation
      JOINT left_tibia_foot
      {
        OFFSET -4.370144 -48.10324 -4.275266
        CHANNELS 3 Zrotation Xrotation Yrotation
        End Site
        {
          OFFSET 0 -5 15
        }
      }
    }
  }
  JOINT pelvis_spine1
  {
    OFFSET 0 6.468898 -3.129235
    CHANNELS 3 Zrotation Xrotation Yrotation
    JOINT spine1
    {
      OFFSET 0 23.15396 4.99043
      CHANNELS 3 Zrotation Xrotation Yrotation
      JOINT spine2
      {
        OFFSET 0 20.79997 -5.064912
        CHANNELS 3 Zrotation Xrotation Yrotation
        JOINT neck
        {
          OFFSET 0 14.38658 9.616178
          CHANNELS 3 Zrotation Xrotation Yrotation
          End Site
          {
            OFFSET 0 20 0
          }
        }
      }
      JOINT right_manubrium
      {
        OFFSET -5.722621 16.35077 3.967754
        CHANNELS 3 Zrotation Xrotation Yrotation
        JOINT right_clavicle
        {
          OFFSET -13.16364 1.694482 -4.693211
          CHANNELS 3 Zrotation Xrotation Yrotation
          JOINT right_humerus
          {
            OFFSET -28.5034 -0.3100689 -2.792744
            CHANNELS 3 Zrotation Xrotation Yrotation
            JOINT right_radius
            {
              OFFSET -25.15693 0.02248979 -1.271978
              CHANNELS 3 Zrotation Xrotation Yrotation
              End Site
              {
                OFFSET -15 0 0
              }
            }
          }
        }
      }
      JOINT left_manubrium
      {
        OFFSET 5.722621 16.35077 3.967754
        CHANNELS 3 Zrotation Xrotation Yrotation
        JOINT left_clavicle
        {
          OFFSET 13.16364 1.694482 -4.693211
          CHANNELS 3 Zrotation Xrotation Yrotation
          JOINT left_humerus
          {
            OFFSET 29.39168 -1.063119 -2.237045
            CHANNELS 3 Zrotation Xrotation Yrotation
            JOINT left_radius
            {
              OFFSET 24.59957 -0.9528479 0.9047498
              CHANNELS 3 Zrotation Xrotation Yrotation
              End Site
              {
                OFFSET 15 -0 -0
              }
            }
          }
        }
      }
    }
  }
}
MOTION
Frames: 21
Frame Time: 0.0416666666667
-541.9831 107.0408 2791.169 -3.130795 -3.410218 -35.81112 5.81981 -23.90157 -3.812413 -0 5.258399 -0 -11.47529 6.697734 -1.313428 -5.109489 15.47952 -6.829729 -0 36.41821 -0 2.112508 -14.87257 14.40619 0.3914918 -3.436997 3.124638 1.580751 13.14634 -8.420219 1.36946 22.5201 6.115189 2.463491 -22.07342 7.524067 -3.866649 -18.51951 11.5587 98.1366 17.78974 -26.50912 -0 0 2.368421 -21.28724 9.439511 8.920475 6.094703 -28.68956 -7.306208 -83.6091 14.81513 9.519769 0 0 -34.41701 13.3812 14.87377 -2.485662
-546.3427 107.6799 2796.547 -3.973821 -3.841778 -36.17286 6.957168 -20.02933 -2.333403 -0 7.505293 -0 -12.22361 5.929268 -1.89945 -4.267693 12.70546 -6.370248 -0 44.94429 -0 1.467988 -11.5725 13.99448 1.134831 -3.709011 3.555433 1.340909 14.12707 -8.521166 1.508975 22.22574 5.658129 2.2919 -21.79101 7.289218 -4.032826 -19.12461 11.7132 98.4831 17.44209 -26.37284 -0 0 3.507386 -21.37952 10.36926 8.743776 5.301603 -28.49217 -7.628531 -84.47237 14.52173 11.82037 0 0 -32.0606 13.11983 14.94573 -2.04905
-550.6027 108.7921 2801.747 -4.742707 -4.504016 -36.69357 7.614003 -15.09354 -1.101242 -0 9.66711 -0 -12.81472 4.187828 -2.3813 -3.330957 8.474547 -6.023281 -0 52.0067 -0 1.22986 -8.225984 13.87768 1.626803 -3.746765 4.187931 1.065535 15.03872 -8.387076 1.614142 22.06732 5.12086 2.06254 -21.46983 6.97675 -4.011624 -19.99754 11.96468 98.37509 17.44958 -25.6073 -0 0 5.243605 -21.4163 11.3158 8.789004 4.475739 -27.9792 -7.918573 -85.57539 14.39866 14.61191 0 0 -29.02905 12.78103 15.04517 -1.535317
-554.6403 110.1421 2806.647 -5.353984 -5.31522 -37.33445 7.812161 -9.571168 -0.2288287 -0 11.13511 -0 -13.10189 1.713371 -2.7399 -2.37469 3.227861 -5.714526 -0 56.25527 -0 1.396054 -5.379924 14.1456 1.799262 -3.600937 4.957183 0.7844752 15.77403 -8.035736 1.684935 22.0225 4.532407 1.776026 -21.1062 6.609334 -3.866864 -21.12988 12.26249 97.77138 17.70088 -24.20688 -0 0 7.530642 -21.48299 12.21855 9.117133 3.770354 -27.23557 -8.07976 -86.82782 14.35488 17.63985 0 0 -25.78115 12.31436 15.17489 -0.9464659
-558.3911 111.4592 2811.209 -5.81971 -6.135902 -38.05134 7.722427 -3.994161 0.3414887 -0 11.75871 -0 -13.03118 -1.154846 -2.992731 -1.385822 -2.39868 -5.355773 -0 56.88779 -0 1.852983 -3.338879 14.76375 1.715446 -3.359767 5.748889 0.5248439 16.29708 -7.548597 1.730755 22.00528 3.916718 1.427711 -20.70889 6.220811 -3.67685 -22.5075 12.54652 96.72358 17.99987 -22.22959 -0 0 10.31751 -21.66197 13.07774 9.752389 3.251695 -26.36133 -8.083579 -88.14032 14.28865 20.72525 0 0 -22.62907 11.67426 15.32989 -0.2471781
-561.8465 112.5115 2815.487 -6.170932 -6.77588 -38.80319 7.531783 1.176862 0.7462817 -0 11.73488 -0 -12.6258 -4.123046 -3.147617 -0.3030059 -7.81829 -4.882473 -0 53.74876 -0 2.467694 -2.122258 15.5755 1.509046 -3.111099 6.457008 0.3152117 16.61773 -7.033989 1.75049 21.89335 3.306122 1.019986 -20.33849 5.845696 -3.477054 -24.1069 12.77141 95.33053 18.23387 -19.8 -0 0 13.54976 -21.97613 13.9287 10.69278 2.894785 -25.42529 -7.947145 -89.43473 14.13288 23.80492 0 0 -19.74179 10.82263 15.44814 0.6406171
-565.0401 113.1468 2819.603 -6.388233 -7.026504 -39.55048 7.351132 5.615493 1.112038 -0 11.36698 -0 -11.93704 -7.009189 -3.167645 0.9106584 -12.63693 -4.278686 -0 47.22384 -0 3.112871 -1.573752 16.3539 1.302986 -2.911867 7.017264 0.1882626 16.73897 -6.587394 1.722467 21.57978 2.760838 0.5798196 -20.10593 5.515533 -3.230993 -25.85701 12.91557 93.66266 18.47073 -17.0853 -0 0 17.12443 -22.37744 14.78727 11.91184 2.638713 -24.44985 -7.67746 -90.64831 13.88695 26.85854 0 0 -17.20241 9.745356 15.3993 1.793292
-568.038 113.2981 2823.716 -6.395051 -6.731045 -40.25538 7.190584 9.165612 1.494247 -0 10.85986 -0 -11.01511 -9.721573 -2.970768 2.206769 -16.67627 -3.589718 -0 38.16538 -0 3.635236 -1.499368 16.90007 1.157329 -2.77258 7.408371 0.1691591 16.6184 -6.257877 1.617692 21.03934 2.373594 0.1704377 -20.11805 5.263697 -2.864047 -27.58789 12.96984 91.72946 18.91239 -14.26077 -0 0 20.81203 -22.78084 15.58581 13.33502 2.453479 -23.42643 -7.239694 -91.73338 13.639 29.77235 0 0 -15.04577 8.48738 15.03314 3.2065
-570.9301 112.9655 2827.973 -6.114892 -5.879835 -40.89282 6.982865 11.8814 1.850409 -0 10.2531 -0 -9.914109 -12.18451 -2.472466 3.430645 -19.93838 -2.919891 -0 27.87584 -0 3.84227 -1.747736 17.15033 1.057823 -2.65889 7.640415 0.2504581 16.17767 -6.024369 1.430818 20.37707 2.243413 -0.1155729 -20.40006 5.129491 -2.344297 -29.0249 12.91649 89.53222 19.73693 -11.48554 -0 0 24.21935 -23.11547 16.14328 14.81308 2.372012 -22.34322 -6.580742 -92.66315 13.56351 32.26311 0 0 -13.25543 7.16892 14.27143 4.74947
-573.8178 112.1924 2832.476 -5.552544 -4.669555 -41.46624 6.636018 14.01804 2.070187 -0 9.536524 -0 -8.713684 -14.26224 -1.662669 4.359401 -22.51836 -2.411408 -0 17.9544 -0 3.559501 -2.218589 17.21685 0.9410762 -2.517176 7.74205 0.3781881 15.36497 -5.80196 1.205036 19.80753 2.418896 -0.1936524 -20.84983 5.148288 -1.746022 -29.87559 12.71961 87.16886 20.92695 -8.897149 -0 0 26.87687 -23.35789 16.22651 16.13644 2.459045 -21.20654 -5.695976 -93.44227 13.86305 33.96463 0 0 -11.74456 5.934971 13.19111 6.222902
-576.7984 111.056 2837.268 -4.831213 -3.449801 -42.00647 6.09292 15.90549 2.065284 -0 8.870178 -0 -7.533341 -15.74379 -0.666108 4.78545 -24.46795 -2.210833 -0 9.890183 -0 2.733797 -2.833233 17.3086 0.7414271 -2.316391 7.746431 0.4744992 14.22511 -5.492776 1.0238 19.55 2.848291 -0.04107226 -21.27367 5.329336 -1.226292 -29.97209 12.34531 84.8897 22.22273 -6.62447 -0 0 28.43403 -23.5231 15.69372 17.10397 2.737537 -20.04514 -4.677421 -94.10218 14.66162 34.63998 0 0 -10.36407 4.869387 12.01915 7.485354
-579.9513 109.6746 2842.347 -4.14019 -2.563435 -42.54581 5.359481 17.76414 1.843295 -0 8.672817 -0 -6.516113 -16.40605 0.290671 4.592963 -25.71877 -2.42964 -0 4.596421 -0 1.485594 -3.519505 17.59178 0.4254572 -2.070346 7.678568 0.4817122 12.90535 -5.04705 0.9689733 19.7138 3.394383 0.2839585 -21.49275 5.644762 -0.9247112 -29.34756 11.79874 83.02366 23.27079 -4.793325 -0 0 28.80569 -23.63053 14.59475 17.60178 3.149987 -18.90146 -3.681928 -94.67522 15.92887 34.3276 0 0 -8.958941 3.972875 11.01842 8.511483
-583.3326 108.2109 2847.692 -3.635893 -2.203705 -43.09061 4.483718 19.60852 1.491086 -0 9.464188 -0 -5.782188 -16.07883 0.9983762 3.785174 -26.14383 -3.103285 -0 2.232214 -0 0.04996322 -4.228813 18.11234 -0.008877917 -1.819051 7.54988 0.384634 11.58916 -4.480883 1.080052 20.26871 3.913353 0.6849734 -21.43416 6.044811 -0.8833555 -28.18057 11.13656 81.82707 23.84135 -3.497864 -0 0 28.14064 -23.68717 13.12741 17.63298 3.595878 -17.82354 -2.847434 -95.17019 17.50305 33.28501 0 0 -7.43943 3.220359 10.36055 9.336631
-586.9718 106.8572 2853.27 -3.384514 -2.388827 -43.61339 3.520936 21.27445 1.105979 -0 11.65517 -0 -5.392852 -14.63891 1.357966 2.465133 -25.65958 -4.169741 -0 2.396286 -0 -1.328497 -4.954743 18.81281 -0.5510783 -1.595115 7.358587 0.1999737 10.43058 -3.851652 1.34334 21.09774 4.323725 1.087125 -21.14014 6.48048 -1.045259 -26.68286 10.44678 81.39127 23.92069 -2.768668 -0 0 26.67687 -23.6981 11.51954 17.29011 3.991455 -16.86481 -2.244259 -95.56643 19.17127 31.82146 0 0 -5.817364 2.615542 10.08759 9.982437
-590.8669 105.8079 2859.036 -3.372127 -3.021814 -44.05818 2.525764 22.48036 0.7521838 -0 15.47042 -0 -5.352703 -11.96762 1.384238 0.8008922 -24.25904 -5.480555 -0 4.433377 -0 -2.454274 -5.728586 19.57995 -1.18523 -1.406917 7.089919 -0.04291436 9.540316 -3.232104 1.703701 22.05728 4.619236 1.462361 -20.72107 6.910784 -1.297641 -25.03458 9.826749 81.66068 23.65448 -2.581773 -0 0 24.63337 -23.68265 9.95914 16.71145 4.293152 -16.09031 -1.888832 -95.8195 20.72266 30.18432 0 0 -4.201883 2.200043 10.15239 10.43163
-594.9765 105.2291 2864.92 -3.544446 -3.953206 -44.34949 1.569671 22.87171 0.4557409 -0 20.94828 -0 -5.634451 -7.961349 1.162465 -1.000278 -21.99411 -6.832969 -0 7.611102 -0 -3.188024 -6.596904 20.27633 -1.877483 -1.239705 6.714597 -0.3124878 9.002666 -2.700987 2.079116 23.00629 4.846346 1.819349 -20.3072 7.297696 -1.516007 -23.38475 9.373337 82.50134 23.24324 -2.894766 -0 0 22.19325 -23.67979 8.589785 16.05187 4.488553 -15.58071 -1.780467 -95.87238 21.96034 28.54041 0 0 -2.779083 2.034933 10.47172 10.64005
-599.215 105.2249 2870.824 -3.846968 -5.019527 -44.40778 0.7561999 22.09057 0.2146705 -0 27.88987 -0 -6.204596 -2.661078 0.8083197 -2.711711 -18.96304 -8.02015 -0 11.16701 -0 -3.453879 -7.592158 20.76437 -2.553679 -1.062879 6.190109 -0.5779516 8.87776 -2.336273 2.375921 23.82363 5.074501 2.178956 -20.01147 7.605094 -1.606243 -21.87336 9.17089 83.75977 22.84455 -3.669691 -0 0 19.53944 -23.73514 7.515615 15.45796 4.582734 -15.4197 -1.924685 -95.67924 22.72297 26.99732 0 0 -1.777446 2.169037 10.96469 10.56474
-603.4565 105.8028 2876.621 -4.262607 -6.080115 -44.17937 0.2027607 19.93413 0.01461091 -0 35.73287 -0 -7.04024 3.488928 0.4371316 -4.122379 -15.31327 -8.914626 -0 14.36728 -0 -3.280707 -8.701962 20.94932 -3.085307 -0.8409983 5.473991 -0.8126087 9.163476 -2.191397 2.518457 24.44491 5.360727 2.544148 -19.88687 7.813423 -1.556611 -20.63197 9.258799 85.30122 22.4748 -4.862795 -0 0 16.88958 -23.86158 6.772753 15.01577 4.593811 -15.65139 -2.330735 -95.24731 22.96314 25.61126 0 0 -1.391962 2.596397 11.59009 10.20129
-607.5532 106.8543 2882.163 -4.830259 -7.061584 -43.67578 -0.02369685 16.55566 -0.1514898 -0 43.47285 -0 -8.115153 9.392386 0.1287002 -5.094202 -11.23837 -9.567429 -0 16.67381 -0 -2.845134 -9.849573 20.83572 -3.310788 -0.5553275 4.560001 -1.001457 9.737536 -2.257813 2.49473 24.90792 5.707321 2.871579 -19.88803 7.945929 -1.474966 -19.75159 9.58507 87.02208 21.94112 -6.389304 -0 0 14.49632 -23.9784 6.287364 14.66769 4.557592 -16.22317 -2.984449 -94.67091 22.84958 24.36789 0 0 -1.667408 3.237019 12.38559 9.601681
-611.364 108.1793 2887.306 -5.586414 -7.944201 -42.99146 0.02984362 12.42897 -0.2740817 -0 49.80752 -0 -9.321391 13.44482 -0.1125024 -5.602243 -6.964361 -10.20789 -0 17.89399 -0 -2.396482 -10.91347 20.53014 -3.111569 -0.2333866 3.533043 -1.139689 10.37114 -2.467469 2.373666 25.31967 6.046152 3.073737 -19.90817 8.073465 -1.522939 -19.25532 10.00349 88.80711 20.95607 -8.108132 -0 0 12.60302 -23.89084 5.922008 14.19157 4.530725 -16.9929 -3.819449 -94.0804 22.71624 23.16907 0 0 -2.46975 4.026063 13.43674 8.801842
-614.7914 109.5474 2891.954 -6.40915 -8.614482 -42.25982 0.2279841 7.830855 -0.3446132 -0 53.4367 -0 -10.38604 14.37242 -0.3506421 -5.70849 -2.744121 -11.01419 -0 18.0423 -0 -1.974981 -11.79788 20.13462 -2.518152 0.05057314 2.595565 -1.194859 10.88546 -2.789202 2.23745 25.68375 6.294741 3.080537 -19.92998 8.256695 -1.709059 -19.11628 10.3792 90.44692 19.55627 -9.887986 -0 0 11.3374 -23.40332 5.660085 13.38725 4.567062 -17.8715 -4.735782 -93.44712 22.72001 21.84693 0 0 -3.76527 5.106181 14.67521 7.667402
